<svg id="visual" viewBox="0 0 2800 900" width="2800" height="900" xmlns="http://www.w3.org/2000/svg" xmlns:xlink="http://www.w3.org/1999/xlink" version="1.1"><path d="M0 91L467 91L933 73L1400 64L1867 100L2333 64L2800 82L2800 0L2333 0L1867 0L1400 0L933 0L467 0L0 0Z" fill="#eaf4f1"></path><path d="M0 271L467 244L933 235L1400 253L1867 289L2333 262L2800 199L2800 80L2333 62L1867 98L1400 62L933 71L467 89L0 89Z" fill="#e8f3ed"></path><path d="M0 379L467 316L933 325L1400 352L1867 370L2333 379L2800 325L2800 197L2333 260L1867 287L1400 251L933 233L467 242L0 269Z" fill="#e8f1e9"></path><path d="M0 469L467 361L933 415L1400 424L1867 433L2333 433L2800 388L2800 323L2333 377L1867 368L1400 350L933 323L467 314L0 377Z" fill="#e9efe5"></path><path d="M0 514L467 406L933 442L1400 460L1867 460L2333 478L2800 433L2800 386L2333 431L1867 431L1400 422L933 413L467 359L0 467Z" fill="#eaede1"></path><path d="M0 550L467 460L933 496L1400 505L1867 496L2333 523L2800 469L2800 431L2333 476L1867 458L1400 458L933 440L467 404L0 512Z" fill="#ebecdf"></path><path d="M0 586L467 487L933 523L1400 541L1867 532L2333 559L2800 505L2800 467L2333 521L1867 494L1400 503L933 494L467 458L0 548Z" fill="#ebecdf"></path><path d="M0 622L467 514L933 568L1400 568L1867 577L2333 604L2800 532L2800 503L2333 557L1867 530L1400 539L933 521L467 485L0 584Z" fill="#eaede1"></path><path d="M0 658L467 559L933 622L1400 631L1867 640L2333 640L2800 577L2800 530L2333 602L1867 575L1400 566L933 566L467 512L0 620Z" fill="#e9efe5"></path><path d="M0 802L467 793L933 820L1400 811L1867 793L2333 811L2800 793L2800 575L2333 638L1867 638L1400 629L933 620L467 557L0 656Z" fill="#e8f1e9"></path><path d="M0 856L467 838L933 856L1400 838L1867 838L2333 838L2800 829L2800 791L2333 809L1867 791L1400 809L933 818L467 791L0 800Z" fill="#e8f3ed"></path><path d="M0 901L467 901L933 901L1400 901L1867 901L2333 901L2800 901L2800 827L2333 836L1867 836L1400 836L933 854L467 836L0 854Z" fill="#eaf4f1"></path></svg>