<svg id="visual" viewBox="0 0 2800 900" width="2800" height="900" xmlns="http://www.w3.org/2000/svg" xmlns:xlink="http://www.w3.org/1999/xlink" version="1.1"><path d="M0 325L93.3 311.5C186.7 298 373.3 271 560 278.5C746.7 286 933.3 328 1120 328C1306.7 328 1493.3 286 1680 253C1866.7 220 2053.3 196 2240 185.5C2426.7 175 2613.3 178 2706.7 179.5L2800 181L2800 0L2706.7 0C2613.3 0 2426.7 0 2240 0C2053.3 0 1866.7 0 1680 0C1493.3 0 1306.7 0 1120 0C933.3 0 746.7 0 560 0C373.3 0 186.7 0 93.3 0L0 0Z" fill="#dcd4f8"></path><path d="M0 415L93.3 422.5C186.7 430 373.3 445 560 455.5C746.7 466 933.3 472 1120 461.5C1306.7 451 1493.3 424 1680 410.5C1866.7 397 2053.3 397 2240 386.5C2426.7 376 2613.3 355 2706.7 344.5L2800 334L2800 179L2706.7 177.5C2613.3 176 2426.7 173 2240 183.5C2053.3 194 1866.7 218 1680 251C1493.3 284 1306.7 326 1120 326C933.3 326 746.7 284 560 276.5C373.3 269 186.7 296 93.3 309.5L0 323Z" fill="#d6c9f5"></path><path d="M0 550L93.3 548.5C186.7 547 373.3 544 560 562C746.7 580 933.3 619 1120 625C1306.7 631 1493.3 604 1680 571C1866.7 538 2053.3 499 2240 476.5C2426.7 454 2613.3 448 2706.7 445L2800 442L2800 332L2706.7 342.5C2613.3 353 2426.7 374 2240 384.5C2053.3 395 1866.7 395 1680 408.5C1493.3 422 1306.7 449 1120 459.5C933.3 470 746.7 464 560 453.5C373.3 443 186.7 428 93.3 420.5L0 413Z" fill="#d0bef2"></path><path d="M0 811L93.3 800.5C186.7 790 373.3 769 560 775C746.7 781 933.3 814 1120 817C1306.7 820 1493.3 793 1680 781C1866.7 769 2053.3 772 2240 773.5C2426.7 775 2613.3 775 2706.7 775L2800 775L2800 440L2706.7 443C2613.3 446 2426.7 452 2240 474.5C2053.3 497 1866.7 536 1680 569C1493.3 602 1306.7 629 1120 623C933.3 617 746.7 578 560 560C373.3 542 186.7 545 93.3 546.5L0 548Z" fill="#c8b2f0"></path><path d="M0 901L93.3 901C186.7 901 373.3 901 560 901C746.7 901 933.3 901 1120 901C1306.7 901 1493.3 901 1680 901C1866.7 901 2053.3 901 2240 901C2426.7 901 2613.3 901 2706.7 901L2800 901L2800 773L2706.7 773C2613.3 773 2426.7 773 2240 771.5C2053.3 770 1866.7 767 1680 779C1493.3 791 1306.7 818 1120 815C933.3 812 746.7 779 560 773C373.3 767 186.7 788 93.3 798.5L0 809Z" fill="#bfa6ee"></path></svg>