<svg id="visual" viewBox="0 0 1024 400" width="1024" height="400" xmlns="http://www.w3.org/2000/svg" xmlns:xlink="http://www.w3.org/1999/xlink" version="1.1"><path d="M0 41L256 49L512 49L768 41L1024 57L1024 0L768 0L512 0L256 0L0 0Z" fill="#1d64c1"></path><path d="M0 85L256 141L512 105L768 161L1024 141L1024 55L768 39L512 47L256 47L0 39Z" fill="#265cb6"></path><path d="M0 205L256 249L512 237L768 301L1024 285L1024 139L768 159L512 103L256 139L0 83Z" fill="#2c54ab"></path><path d="M0 245L256 297L512 261L768 329L1024 329L1024 283L768 299L512 235L256 247L0 203Z" fill="#2f4ca0"></path><path d="M0 401L256 401L512 401L768 401L1024 401L1024 327L768 327L512 259L256 295L0 243Z" fill="#314595"></path></svg>