<svg id="visual" viewBox="0 0 1280 400" width="1280" height="400" xmlns="http://www.w3.org/2000/svg" xmlns:xlink="http://www.w3.org/1999/xlink" version="1.1"><path d="M0 57L640 45L1280 65L1280 0L640 0L0 0Z" fill="#3b93f7"></path><path d="M0 105L640 145L1280 133L1280 63L640 43L0 55Z" fill="#4185f6"></path><path d="M0 185L640 197L1280 189L1280 131L640 143L0 103Z" fill="#4f75f2"></path><path d="M0 229L640 217L1280 277L1280 187L640 195L0 183Z" fill="#6163eb"></path><path d="M0 333L640 217L1280 341L1280 275L640 215L0 227Z" fill="#754de1"></path><path d="M0 401L640 401L1280 401L1280 339L640 215L0 331Z" fill="#872fd3"></path></svg>