<svg id="visual" viewBox="0 0 540 960" width="540" height="960" xmlns="http://www.w3.org/2000/svg" xmlns:xlink="http://www.w3.org/1999/xlink" version="1.1"><rect x="0" y="0" width="540" height="960" fill="#ebe5e0"></rect><path d="M0 603L270 451L540 618L540 961L270 961L0 961Z" fill="#0a75f5"></path><path d="M0 634L270 653L540 633L540 961L270 961L0 961Z" fill="#636bf0"></path><path d="M0 678L270 568L540 655L540 961L270 961L0 961Z" fill="#8d5ee6"></path><path d="M0 705L270 728L540 714L540 961L270 961L0 961Z" fill="#ae4fd9"></path><path d="M0 654L270 666L540 722L540 961L270 961L0 961Z" fill="#c83bc7"></path><path d="M0 721L270 734L540 695L540 961L270 961L0 961Z" fill="#dd1eb2"></path><path d="M0 731L270 790L540 782L540 961L270 961L0 961Z" fill="#ed009b"></path><path d="M0 768L270 769L540 762L540 961L270 961L0 961Z" fill="#f90082"></path><path d="M0 834L270 850L540 820L540 961L270 961L0 961Z" fill="#ff0068"></path><path d="M0 887L270 842L540 815L540 961L270 961L0 961Z" fill="#ff004d"></path><path d="M0 874L270 913L540 858L540 961L270 961L0 961Z" fill="#fd0030"></path><path d="M0 936L270 892L540 891L540 961L270 961L0 961Z" fill="#f50a0a"></path></svg>