<svg id="visual" viewBox="0 0 540 960" width="540" height="960" xmlns="http://www.w3.org/2000/svg" xmlns:xlink="http://www.w3.org/1999/xlink" version="1.1"><rect x="0" y="0" width="540" height="960" fill="#e8d5c8"></rect><path d="M0 641L180 637L360 499L540 585L540 961L360 961L180 961L0 961Z" fill="#0a75f5"></path><path d="M0 684L180 597L360 582L540 656L540 961L360 961L180 961L0 961Z" fill="#755fde"></path><path d="M0 732L180 722L360 639L540 601L540 961L360 961L180 961L0 961Z" fill="#9d47bf"></path><path d="M0 717L180 691L360 742L540 723L540 961L360 961L180 961L0 961Z" fill="#b3299c"></path><path d="M0 783L180 781L360 790L540 807L540 961L360 961L180 961L0 961Z" fill="#bc0077"></path><path d="M0 843L180 836L360 760L540 855L540 961L360 961L180 961L0 961Z" fill="#bb0053"></path><path d="M0 800L180 816L360 892L540 844L540 961L360 961L180 961L0 961Z" fill="#b10031"></path><path d="M0 915L180 880L360 920L540 914L540 961L360 961L180 961L0 961Z" fill="#a00f0f"></path></svg>