<svg xmlns="http://www.w3.org/2000/svg" version="1.1" xmlns:xlink="http://www.w3.org/1999/xlink" xmlns:svgjs="http://svgjs.dev/svgjs" viewBox="0 0 800 800"><defs><linearGradient x1="50%" y1="0%" x2="50%" y2="100%" id="ffflurry-grad" gradientTransform="rotate(270)"><stop stop-color="hsl(238, 92%, 25%)" stop-opacity="1" offset="0%"></stop><stop stop-color="hsl(284, 100%, 67%)" stop-opacity="1" offset="45%"></stop><stop stop-color="hsl(230, 96%, 45%)" stop-opacity="1" offset="100%"></stop></linearGradient></defs><rect width="100%" height="100%" fill="hsl(238, 92%, 25%)"></rect><g fill="url(#ffflurry-grad)"><rect width="464" height="3" x="311" y="271.5" rx="1.5" transform="rotate(54, 543, 273)" opacity="0.42"></rect><rect width="225" height="3" x="654.5" y="247.5" rx="1.5" transform="rotate(54, 767, 249)" opacity="0.34"></rect><rect width="213" height="3" x="522.5" y="768.5" rx="1.5" transform="rotate(54, 629, 770)" opacity="0.36"></rect><rect width="242" height="3" x="538" y="496.5" rx="1.5" transform="rotate(54, 659, 498)" opacity="0.85"></rect><rect width="227" height="3" x="444.5" y="476.5" rx="1.5" transform="rotate(54, 558, 478)" opacity="0.44"></rect><rect width="347" height="3" x="-125.5" y="581.5" rx="1.5" transform="rotate(54, 48, 583)" opacity="0.86"></rect><rect width="150" height="3" x="363" y="209.5" rx="1.5" transform="rotate(54, 438, 211)" opacity="0.43"></rect><rect width="447" height="3" x="230.5" y="409.5" rx="1.5" transform="rotate(54, 454, 411)" opacity="0.34"></rect><rect width="56" height="3" x="741" y="658.5" rx="1.5" transform="rotate(54, 769, 660)" opacity="0.18"></rect><rect width="74" height="3" x="727" y="469.5" rx="1.5" transform="rotate(54, 764, 471)" opacity="0.41"></rect><rect width="41" height="3" x="421.5" y="133.5" rx="1.5" transform="rotate(54, 442, 135)" opacity="0.65"></rect><rect width="511" height="3" x="150.5" y="551.5" rx="1.5" transform="rotate(54, 406, 553)" opacity="0.41"></rect><rect width="202" height="3" x="588" y="72.5" rx="1.5" transform="rotate(54, 689, 74)" opacity="0.47"></rect><rect width="68" height="3" x="113" y="334.5" rx="1.5" transform="rotate(54, 147, 336)" opacity="0.14"></rect><rect width="75" height="3" x="731.5" y="102.5" rx="1.5" transform="rotate(54, 769, 104)" opacity="0.47"></rect><rect width="288" height="3" x="548" y="635.5" rx="1.5" transform="rotate(54, 692, 637)" opacity="0.89"></rect><rect width="65" height="3" x="196.5" y="34.5" rx="1.5" transform="rotate(54, 229, 36)" opacity="0.50"></rect><rect width="93" height="3" x="4.5" y="467.5" rx="1.5" transform="rotate(54, 51, 469)" opacity="0.31"></rect><rect width="275" height="3" x="456.5" y="146.5" rx="1.5" transform="rotate(54, 594, 148)" opacity="0.55"></rect><rect width="55" height="3" x="719.5" y="773.5" rx="1.5" transform="rotate(54, 747, 775)" opacity="0.33"></rect><rect width="67" height="3" x="12.5" y="373.5" rx="1.5" transform="rotate(54, 46, 375)" opacity="0.49"></rect><rect width="80" height="3" x="711" y="26.5" rx="1.5" transform="rotate(54, 751, 28)" opacity="0.39"></rect><rect width="149" height="3" x="292.5" y="56.5" rx="1.5" transform="rotate(54, 367, 58)" opacity="1.00"></rect><rect width="484" height="3" x="120" y="703.5" rx="1.5" transform="rotate(54, 362, 705)" opacity="0.19"></rect><rect width="297" height="3" x="115.5" y="638.5" rx="1.5" transform="rotate(54, 264, 640)" opacity="0.40"></rect><rect width="120" height="3" x="222" y="535.5" rx="1.5" transform="rotate(54, 282, 537)" opacity="0.83"></rect><rect width="187" height="3" x="631.5" y="160.5" rx="1.5" transform="rotate(54, 725, 162)" opacity="0.09"></rect><rect width="330" height="3" x="441" y="39.5" rx="1.5" transform="rotate(54, 606, 41)" opacity="0.36"></rect><rect width="377" height="3" x="297.5" y="744.5" rx="1.5" transform="rotate(54, 486, 746)" opacity="0.63"></rect><rect width="317" height="3" x="518.5" y="243.5" rx="1.5" transform="rotate(54, 677, 245)" opacity="0.81"></rect><rect width="382" height="3" x="99" y="428.5" rx="1.5" transform="rotate(54, 290, 430)" opacity="0.81"></rect><rect width="242" height="3" x="579" y="553.5" rx="1.5" transform="rotate(54, 700, 555)" opacity="0.51"></rect><rect width="244" height="3" x="117" y="755.5" rx="1.5" transform="rotate(54, 239, 757)" opacity="0.46"></rect><rect width="343" height="3" x="88.5" y="136.5" rx="1.5" transform="rotate(54, 260, 138)" opacity="0.94"></rect><rect width="400" height="3" x="427" y="351.5" rx="1.5" transform="rotate(54, 627, 353)" opacity="0.21"></rect><rect width="249" height="3" x="70.5" y="573.5" rx="1.5" transform="rotate(54, 195, 575)" opacity="0.99"></rect><rect width="288" height="3" x="371" y="629.5" rx="1.5" transform="rotate(54, 515, 631)" opacity="0.99"></rect><rect width="77" height="3" x="3.5" y="251.5" rx="1.5" transform="rotate(54, 42, 253)" opacity="0.12"></rect><rect width="325" height="3" x="1.5" y="429.5" rx="1.5" transform="rotate(54, 164, 431)" opacity="0.77"></rect><rect width="269" height="3" x="616.5" y="359.5" rx="1.5" transform="rotate(54, 751, 361)" opacity="0.08"></rect><rect width="116" height="3" x="572" y="697.5" rx="1.5" transform="rotate(54, 630, 699)" opacity="0.92"></rect><rect width="130" height="3" x="620" y="433.5" rx="1.5" transform="rotate(54, 685, 435)" opacity="0.90"></rect><rect width="417" height="3" x="-130.5" y="79.5" rx="1.5" transform="rotate(54, 78, 81)" opacity="0.35"></rect><rect width="60" height="3" x="227" y="282.5" rx="1.5" transform="rotate(54, 257, 284)" opacity="0.90"></rect><rect width="312" height="3" x="219" y="290.5" rx="1.5" transform="rotate(54, 375, 292)" opacity="0.87"></rect><rect width="70" height="3" x="732" y="567.5" rx="1.5" transform="rotate(54, 767, 569)" opacity="0.94"></rect><rect width="271" height="3" x="3.5" y="207.5" rx="1.5" transform="rotate(54, 139, 209)" opacity="0.32"></rect><rect width="149" height="3" x="-13.5" y="729.5" rx="1.5" transform="rotate(54, 61, 731)" opacity="0.69"></rect><rect width="399" height="3" x="408.5" y="578.5" rx="1.5" transform="rotate(54, 608, 580)" opacity="0.13"></rect><rect width="321" height="3" x="333.5" y="50.5" rx="1.5" transform="rotate(54, 494, 52)" opacity="0.76"></rect><rect width="96" height="3" x="100" y="672.5" rx="1.5" transform="rotate(54, 148, 674)" opacity="0.21"></rect><rect width="57" height="3" x="105.5" y="526.5" rx="1.5" transform="rotate(54, 134, 528)" opacity="0.99"></rect><rect width="86" height="3" x="699" y="720.5" rx="1.5" transform="rotate(54, 742, 722)" opacity="0.17"></rect></g></svg>