<svg id="visual" viewBox="0 0 540 960" width="540" height="960" xmlns="http://www.w3.org/2000/svg" xmlns:xlink="http://www.w3.org/1999/xlink" version="1.1"><rect x="0" y="0" width="540" height="960" fill="#9f5824"></rect><path d="M0 556L540 609L540 961L0 961Z" fill="#f5730a"></path><path d="M0 619L540 614L540 961L0 961Z" fill="#e5650a"></path><path d="M0 628L540 619L540 961L0 961Z" fill="#d65809"></path><path d="M0 726L540 663L540 961L0 961Z" fill="#c64b08"></path><path d="M0 731L540 715L540 961L0 961Z" fill="#b63d06"></path><path d="M0 845L540 799L540 961L0 961Z" fill="#a63005"></path><path d="M0 888L540 817L540 961L0 961Z" fill="#972303"></path><path d="M0 918L540 866L540 961L0 961Z" fill="#871400"></path></svg>