<svg xmlns="http://www.w3.org/2000/svg" version="1.1" xmlns:xlink="http://www.w3.org/1999/xlink" xmlns:svgjs="http://svgjs.dev/svgjs" viewBox="0 0 640 800" opacity="0.75"><defs><linearGradient x1="50%" y1="0%" x2="50%" y2="100%" id="ssscribble-grad"><stop stop-color="hsl(206, 62%, 59%)" stop-opacity="1" offset="0%"></stop><stop stop-color="hsl(331, 56%, 72%)" stop-opacity="1" offset="100%"></stop></linearGradient></defs><g fill="none" stroke-width="1" stroke="url(#ssscribble-grad)" stroke-linecap="round"><path d="M809.33 196.93C663.34 228.97 578.79 257.27 591.08 287.34 690.25 324.62 818.57 376.76 914.21 453.44 942.78 546.05 889.4 661.47 780.1 782.19 646.65 872.21 530.09 911.92 453.39 875.09 422.18 780.76 431.34 661.08 462.61 585.78 511.23 616.72 553.61 753.99 580.31 933.59 601.12 1042.47 603.29 1007.87 590.33 847.17 573.72 692.24 548.02 668.02 515.99 808.33 483.95 997.1 447.1 1067.15 403.3 968 355.85 780.26 295.41 645 219.09 644.74 136.87 766.34 41.74 911.04 -56.23 984.53 -136.87 951.36 -192.02 827.92 -202.8 677.81 -168.08 547.36 -89.5 478.44 10.6 468.07 86.54 505.53 111.19 559.38 59.15 604.74 -59.96 647.07 -206.51 664.63 -318.04 660.19 -342.7 649.92 -264.64 626.54 -118.65 594.5 13.9 562.47 66.19 523.3 20.15 473.16 -99.13 417.19 -224.94 341.36 -299.02 243.52 -296.04 142.65 -215 36.04 -91.05 -50.78 41.33 -89.77 142.98 -66.84 197.84 21.61 204.59 129.74 175.8 215.2 132.41 215.03 78.34 108.18 37.27 -65.24 15.69 -210.32 3.28 -233.54 9.47 -116.5 28.83 58.86 52.26 145.65 81.66 69.11 113.7 -119.65 145.73 -259.96 178.88 -229.25 215.85 -61.96 256.91 111.09 308.99 163.92 376.92 78.52 454.01 -77.58 547.83 -186.13 651.26 -183.71 744.03 -75.06 818.8 82.58 854.03 218.9 841.16 297.71 777.49 303.99 678.45 263.33 587.85 191.99 535.54 129.32 556.04 92.22 653.59 71.05 797.64 77.18 929.29 100.31 987.69 130.66 941.89 164.9 809.33 196.93Q809.33 196.93 809.33 196.93" opacity="0.30"></path><path d="M780.28 239.45C642.26 269.48 555.01 311.51 551.39 367.42 629.23 427.02 745.98 505.17 849.94 599.89 908.04 691.25 895.1 780.9 821.74 845.78 708.5 866.03 588.08 831.21 486.85 742.26 414.58 641.34 379.59 562.38 373.54 558.33 392.28 649.79 419.4 808.73 442.94 960.36 469.5 1017.83 482.92 944.85 481.26 782.43 478.27 650.28 461.56 643.43 431.53 779.34 401.5 958.26 359.57 1038.75 305.93 968.34 250.95 799.5 182.9 646.04 104.3 596.02 28.71 666.87 -47.85 799.77 -112.88 911.3 -153.11 951.76 -161.23 898.3 -128.32 783.61 -66.45 642.67 18.35 523.78 100.32 447.87 142.42 414.99 128.43 418.28 48.31 437.12 -77.65 470.52 -211.5 495.26 -300.92 503.25 -308.89 510.75 -227.73 499.68 -89.71 469.66 36.46 439.63 94.56 392.07 65.78 327.93 -34.9 263.32 -155.65 183.95 -245.33 98.49 -276.58 27.61 -235.15 -25.14 -140.79 -38.56 -18.13 -8.94 98.23 66.82 185.74 168.4 237.58 243.74 251.79 261.61 240.69 189.91 208.16 47.12 173.26 -112.71 146.76 -205.59 120.51 -177.61 109.59 -41.26 114.01 115.98 120.58 174.84 139.47 88.3 169.49 -90.59 199.53 -226.54 239.27 -213.65 289.34 -69.93 341.55 104.09 407.09 194.18 485.38 158.76 563.92 29.14 648.28 -102.86 727.1 -163.08 784.49 -127.78 813.4 -13.22 800.94 127.05 752.79 255.37 672.03 333.31 580.64 359.36 517.53 340.77 503.03 300.59 556.28 261.27 667.96 218.58 805.79 195.06 918.09 192.09 958.47 192.81 906.49 209.41 780.33 239.44Q780.28 239.45 780.28 239.45" opacity="0.12"></path><path d="M752 398.01C622.08 426.04 533.19 471.21 515.13 531.1 571.24 589.66 671.97 658.33 776.16 727.22 854.86 779.83 877.85 811.59 843.87 806.32 763.64 766.52 658.4 689.95 552.4 596.31 456.24 530.04 385.94 515.16 342.33 578.61 322.07 707.32 318.81 860.4 322.4 968.49 334.82 975.88 342.62 874.87 340.51 718.9 339.37 610.77 325.53 619.39 297.51 750.19 269.48 918.79 228.58 1007.21 176.86 964.06 126.12 819.72 67.33 660.73 6.33 570.89 -45.82 586.15 -88.72 683.79 -111.65 802.27 -111.24 893.58 -81.18 912.27 -21.75 860.84 47.5 756.9 119.51 635.49 170.56 526.74 175.35 437.23 127.22 381.25 27.98 351.36 -96.75 341.33 -213.44 339.78 -280.36 335.27 -273.12 334.68 -189.9 322.24 -59.99 294.21 59.24 266.19 121.3 223.91 107.91 171.64 26.57 123.29 -83.92 73.85 -180.91 35.3 -238.51 16.6 -234.52 26.42 -175.98 72.72 -78.09 138.27 33.52 219.45 135.58 286.65 219.18 301.37 272.55 249.46 298.94 128.99 296.69 -80.07 253.48 -36.5 248.31 168.54 248.72 200.91 262.5 106.85 290.53 -61.73 318.56 -192.57 359.51 -195.55 411.95 -76.62 464.24 90.16 526.71 207.14 594.76 220.32 656.18 132.78 712.63 4.84 752.93 -94.69 769.74 -128.96 756.62 -80.86 709.75 22.14 644.43 152.51 566.04 269.33 497.33 352.33 467.98 400.8 489.12 415.19 567.27 411.15 684.8 390.84 811.26 373.16 903.42 367.45 927.62 360.42 871.24 369.99 752 398.01Q752 398.01 752 398.01" opacity="0.24"></path><path d="M722.28 558.2C600.89 584.23 512.41 619.79 482.9 660.64 518.83 697.23 600.93 730.31 698.02 749.74 786.87 752.33 836.87 728.94 839.14 676 797.29 612.22 720.99 539.98 628.94 484.55 530.32 476.67 442.76 526.67 373.31 636.52 319.36 773.63 283.78 897.48 260.82 954.36 247.95 918.28 238.47 800.69 226.65 658.15 217.14 574.32 200.47 596.33 174.45 721.34 148.42 879.22 114.26 973.05 74.69 954.87 37.43 838.71 -0.43 685.98 -32.67 569.58 -54.81 533.02 -62.08 581.21 -48.25 678.01 -18.92 787.19 31.27 858.48 95.78 873.34 153.72 834.18 199.16 753.53 213.92 656.73 184.55 552.3 111.21 462.8 3.28 394.07 -112.88 338.01 -209.8 298.87 -255.77 269.57 -236.31 245.04 -153.1 221.55 -31.71 195.52 80.69 169.5 146.09 142.16 147.23 117.61 86.06 97.82 -9.9 89.61 -106.76 100.56 -182.28 124.18 -210.7 170.81 -189.61 235.13 -126.43 291.82 -36.13 335.12 61.45 340.18 157.79 291.22 236.82 189.09 294.56 52.81 334.05 -71.08 356.07 -142.63 367.91 -125.18 370.2 -27.87 372.19 110.04 379.41 216.17 384.78 224.34 399.48 125.27 425.5 -32.59 451.52 -157.63 487.65 -174.41 531.36 -80.56 573.22 72.02 618.58 204.44 661.39 259.61 694.67 221.82 715.51 121.31 716.14 11.3 698.52 -71.45 656.86 -90.59 594.64 -48.61 531.16 40.92 471.7 150.53 435.62 254.42 441.61 347.48 493.36 413.72 587.95 456.24 703.88 481.91 814.67 496.18 885.9 508.68 894.82 516.91 834.72 532.17 722.33 558.19Q722.28 558.2 722.28 558.2" opacity="0.47"></path><path d="M693.28 603.73C536.99 637.85 502.07 669.31 617.12 646.13 706.73 616.91 773.85 570.02 805.69 512.4 801.55 466.44 761.28 436.01 696.72 440.68 614.83 491.22 530.11 586.76 452.36 712.31 379.84 830.59 321.22 909.88 275.75 916.11 237.8 847.1 208.28 724.35 183.36 600.71 160.85 540.59 138.42 573.79 114.4 692.34 90.38 839.12 65.89 935.88 43.1 939.73 22.71 853.51 8.52 717 4.84 588.72 8.67 511.22 27.73 506.65 63.23 561.76 103.95 655.73 154.17 747.02 204.57 808.39 237.65 833.5 249.44 814.18 228.56 763.25 171.71 688.38 83.04 606.91 -24.18 531.38 -125.99 456.14 -201.35 394.69 -227.52 347.48 -197.67 302.68 -115.46 268.72 -2.71 244.69 135.82 214.19 101.42 217.97 -27.7 260.44 -137.24 315.29 -120.15 380.43 -13.88 316.26 74.79 223.41 159.98 103.65 233.64 -15.34 298.22 -95.48 347.4 -112.47 383.78 -52.6 411.84 58.05 433.38 180.89 452.85 257.86 469.96 244.77 489.58 143.17 513.61 -3.59 537.63 -122.17 564.92 -150.54 593.11 -81.17 618.95 51.72 641.13 188.15 654.7 274.79 659.95 286.19 650.34 228.45 622.8 135.19 586.17 34.64 535.47 -32.4 478.28 -51.46 432.73 -24.64 402.74 40.27 402 123.25 438.96 217.9 512.36 304.35 613.56 375.21 721 438.23 813.31 485.52 864.47 521.14 860.44 552.98 798.38 579.69 693.33 603.72Q693.28 603.73 693.28 603.73" opacity="0.89"></path><path d="M664.85 501.66C560.89 523.69 476.31 532.77 429.68 528.82 429.44 523.8 470.23 504.75 537.3 473.71 619.22 445.67 692.72 414.3 744.19 390.41 771.1 388.98 766.45 413.83 735.56 473.49 683.47 561.76 618.79 671.97 550.92 782.36 479.34 862.24 414.14 891.71 358.4 855.08 305.67 766 262.35 648.55 227.48 547.54 194.15 509.69 166.7 551.77 144.68 663.22 114.88 847.21 93.87 805.35 110.06 623.03 127.64 520.15 156.57 469.78 194.21 475.4 228.14 529.91 261.2 607.44 284.43 682.65 286.45 747.09 264.99 780.88 215.15 783.97 140.76 762.47 47.5 721.07 -50.55 671.08 -133.76 612.34 -187.09 556.97 -195.35 510.69 -157.22 463.64 -77.1 428.17 26.85 406.15 157.63 380.35 160.1 394.5 52.64 422.73 -29.99 434.55 -95.06 439.7 -131.85 427.27 -139.85 390.25 -116.3 324.84 -69.28 231.55 -3.99 127.48 68.85 23.83 140.31 -53.62 211.87 -82.19 274.15 -51.58 325.6 35.14 372.5 144.89 410.35 245.21 441.1 293.21 470.05 262.35 495.09 160.61 517.11 25.28 539.13 -86.19 557.09 -123.84 569.68 -77.51 580.46 31.97 582.67 161.96 573.94 267.2 560.65 319.99 534.64 310.28 497.03 253.34 459.5 165.88 418.27 81.78 381.84 22.37 363.69 -8.43 366.25 -1.67 397.18 33.7 456.91 91.53 541.72 159.17 640.51 225.38 734.14 294.58 806.61 353.69 839.26 400.25 824.62 445.73 762.18 479.64 664.85 501.66Q664.85 501.66 664.85 501.66" opacity="0.48"></path><path d="M635.8 326.05C540.85 346.07 460.17 353.88 408.72 351.33 394.33 350.24 415.52 342.26 463.36 332.67 531.07 331.95 600.89 339.65 660.47 363.96 707.32 407.86 730.9 474.86 731.57 563.23 713.17 658.1 677.95 751.91 632.88 824.62 579 857.78 524.04 842.02 472.78 775.51 420.36 679.72 374.77 576.15 337.52 499.67 300.6 481.88 271.77 530.49 251.75 634.23 226.6 805.62 224.71 819.41 247.01 665.66 263.58 554.64 285.57 473.09 308.6 433.88 322.81 438.99 329.28 478.66 321.45 535.66 294.53 603.47 247.22 661.09 179.53 700.34 99.09 725.91 11.33 730.62 -71.06 719.68 -133.56 698.56 -166.15 670.49 -159.49 641.64 -115.76 610.27 -39.14 583.22 55.8 563.2 145.26 543.17 211.08 531.13 242.11 524.74 234.02 515.84 193.2 507.49 131.76 493.92 57.64 470.17 -10.62 432.49 -62.2 376.08 -95.73 305.97 -103.6 219.61 -88.67 125.56 -54.92 42.32 -7.24 -21.09 46.87 -47.06 107.49 -28.71 166.08 34.87 218.69 131.2 270.97 227.93 315.42 301.26 351.39 322.25 386.64 277.49 414.44 177.9 434.46 54.29 454.49 -49.46 465.77 -94.05 468.28 -68.56 470.07 15.63 462.04 130.59 444.46 241.06 426.54 322.26 400.92 355.99 371.16 343.68 347.89 291.82 328.96 221.75 321.45 153.11 332.75 90.98 364.37 52.72 418.74 39.67 491.17 46.22 577.39 71.49 666.18 106.9 742.3 151.19 794.52 195.6 810.33 234.44 787.02 274.74 725.26 306.03 635.8 326.05Q635.8 326.05 635.8 326.05" opacity="0.57"></path><path d="M606.76 203.88C520.96 221.9 445.28 236.11 391.35 248.36 365.83 262.88 369.58 279.79 397.86 303.39 447.34 334.89 505.57 378.97 562.71 438.11 617.12 505.89 657.61 585.19 681.54 668.57 692.21 741.29 686.75 797.4 668.96 823.29 641.53 813.07 607.8 764.3 572.25 683.35 533.15 592.97 496.43 509.41 464.77 457.55 432.51 457.04 406.69 509.81 388.67 605.24 370.66 716.87 361.29 808.56 359.57 856.21 357.25 851.84 361.19 796.67 369.06 708.47 373.39 605.32 377.45 510.96 377.1 441.21 367.13 402.02 346.72 395.71 312.43 414.55 264.89 454.92 203.03 502.25 129.86 546.44 53.96 590.59 -20.42 622.12 -83.11 639.87 -124.6 652.1 -138.6 652.8 -120.03 644.9 -73.06 634.87 -1.03 620.06 84.76 602.04 166.09 584.02 229.54 563.66 266.18 539.71 271.7 513.63 248.99 480.15 205.47 436.71 145.53 387.74 83.04 326.53 27.4 254.62 -20.35 182.66 -50.6 109.45 -62.57 45.46 -59.7 2.99 -41.49 -12.07 -12.73 8.35 24.88 59.32 66.41 137.51 107.45 227.46 151.1 302.46 190.64 347.39 223.84 344.82 257.32 290.24 283.64 194.93 301.66 83.3 319.68 -12.15 328.54 -61.29 329.04 -53.84 329.83 4.94 323.06 98.75 310.64 202.35 294.89 328.98 281.96 365.94 306.53 299.47 342.11 239.71 393.73 186.27 460.26 146.25 534.65 114.89 613.3 100.48 686.46 100.2 743.18 107.83 776.15 123.69 777.58 143.16 747.89 164.89 688.09 185.87 606.76 203.88Q606.76 203.88 606.76 203.88" opacity="0.44"></path><path d="M577.33 223.67C431.33 255.71 344.38 310.83 343.65 397.13 419.43 495.1 518.01 624.36 592.4 742.54 641.47 790.89 643.13 736.66 615.38 586.33 572.44 454.28 527.38 436.02 495.35 576.33 463.31 765.11 447.34 832.21 434.77 743.45 407 568.23 355.35 420.16 264.3 357.06 147.93 374.91 15.37 431.15 -83.88 474.27 -106.63 519.39 -32.66 526.68 113.33 494.64 245.89 462.61 301.48 394.29 270.76 293.65 173.84 195.02 72.2 88.79 8 28.95 -21.62 50.08 -3.84 164.17 37.58 315.92 93.24 381.19 144.58 301.11 176.62 112.33 208.65 -27.97 218.34 3.26 218.19 158.79 232.28 332.6 264.49 420.8 336.1 414.43 442.28 338.24 577.9 258.98 698.3 216.52 752.5 185.72 709.89 191.64 577.33 223.67Q577.33 223.67 577.33 223.67" opacity="0.66"></path><path d="M548.28 371C418.47 399.03 328.35 461.27 302.19 548.61 339.67 629.26 410.33 710.08 478.87 749.69 544.64 727.06 578.4 630.17 582.15 492.37 575.49 403.57 553.68 416.54 525.65 547.34 497.62 715.95 466.03 800.8 424.11 763.35 371.79 634.63 294.29 485.23 191.78 376.85 36.31 314.64 -26.9 344.33 142.28 318.65 261.73 290.62 326.5 232.52 324.46 160.48 262.93 103.87 180.4 68.45 111.51 89.77 58.06 289.65 155.26 9.73 197.94 118.27 239.57 276.62 304.62 403.23 398.57 462.6 504.2 459.73 616.46 422.65 698.54 390.57 721.14 351.8 667.76 342.97 548.33 370.99Q548.28 371 548.28 371" opacity="0.22"></path><path d="M519.61 539.24C406.83 563.26 318.74 607.15 274.8 656.82 278.1 693.11 314.6 708.54 361.59 679.69 419.38 615.83 461.37 513.1 480.15 409.31 495.06 363.62 489.72 399.72 465.7 518.27 441.67 665.05 401.24 757.95 344.69 762.73 284.28 689.57 204.8 572.19 115.52 458.9 37.04 359.93 -24.93 297.25 -45.84 262.3 -19.51 241.88 58.83 225.48 171.61 201.46 310.75 162.75 311.18 132.75 229.17 212.83 150.33 340.57 113.76 368.4 142.63 170.33 166.66 51.75 202.74 25.35 252.63 88.64 308.17 210.05 384.15 338.26 475.24 433.61 562.06 493.95 640.9 516.02 685.62 521.37 683.16 513.32 624.6 515.21 519.61 539.24Q519.61 539.24 519.61 539.24" opacity="0.14"></path><path d="M490.28 606.77C395.35 626.79 314.38 643.13 261.42 647.77 239.32 642.98 243.88 612.22 263.03 551.24 296.92 482.66 327.18 403.74 344.08 343.9 361.92 335.28 362.34 385.6 342.32 489.34 322.29 612.96 283.73 704.69 231.19 738.78 179.6 717.47 118.09 649.67 57.97 565.02 12.58 470.62 -13.21 390.78 -5.78 333.66 32.49 282.59 105.35 248.08 200.28 228.06 289.83 208.04 356.69 204.4 391.49 220.78 393.35 243.2 371.47 291.8 340.19 359.96 297.57 418.37 263.29 464.93 245.36 471.57 227.96 422.8 228.42 322.96 248.44 199.34 268.46 95.6 306.15 53.4 358.25 76.68 410.87 151.2 476.39 251.36 545.25 346.18 602.78 433.39 645.89 495.41 658.7 534.88 638.58 564.94 579.83 586.75 490.28 606.77Q490.28 606.77 490.28 606.77" opacity="0.50"></path><path d="M461.33 524.56C315.33 556.59 223.74 512.69 199.74 404.49 223.01 326.62 240.91 320.02 208.88 460.33 138.9 679.55 50.52 465.84 229.33 379.04 361.89 347.01 423.89 398.55 423.51 483.67 379.77 503.97 353.32 417.11 385.35 228.33 417.38 88.02 501.84 120.58 587.56 240.44 629.92 390.62 593.89 492.53 461.33 524.56Q461.33 524.56 461.33 524.56" opacity="0.65"></path><path d="M432.52 352.14C319.74 376.17 229.98 341.4 181.67 286.69 159.85 271.02 148.11 312.75 124.09 431.29 100.06 578.07 68.3 663.07 58.63 668.42 75.46 627.55 145.74 569.17 258.52 545.14 363.53 521.12 434.76 536 465.45 545.38 468.7 508.54 469.56 404.07 493.59 257.29 517.61 138.75 560.24 116.49 588.48 163.65 589.28 249.85 537.53 328.12 432.52 352.14Q432.52 352.14 432.52 352.14" opacity="0.91"></path><path d="M403.33 214.41C257.31 246.45 157.2 262.02 125.17 402.33 93.13 591.13 141.31 638.27 287.33 606.23 419.89 574.2 493.94 475.13 525.98 286.33 558.01 146.02 535.89 182.38 403.33 214.41Q403.33 214.41 403.33 214.41" opacity="0.44"></path></g></svg>