<svg id="visual" viewBox="0 0 2080 1024" width="2080" height="1024" xmlns="http://www.w3.org/2000/svg" xmlns:xlink="http://www.w3.org/1999/xlink" version="1.1"><rect x="0" y="0" width="2080" height="1024" fill="#176332"></rect><path d="M0 454L297 440L594 196L891 489L1189 375L1486 496L1783 318L2080 435L2080 1025L1783 1025L1486 1025L1189 1025L891 1025L594 1025L297 1025L0 1025Z" fill="#0ad934"></path><path d="M0 362L297 390L594 579L891 535L1189 490L1486 518L1783 348L2080 555L2080 1025L1783 1025L1486 1025L1189 1025L891 1025L594 1025L297 1025L0 1025Z" fill="#07c42d"></path><path d="M0 469L297 487L594 629L891 606L1189 607L1486 521L1783 668L2080 600L2080 1025L1783 1025L1486 1025L1189 1025L891 1025L594 1025L297 1025L0 1025Z" fill="#04af27"></path><path d="M0 699L297 709L594 642L891 662L1189 684L1486 775L1783 807L2080 628L2080 1025L1783 1025L1486 1025L1189 1025L891 1025L594 1025L297 1025L0 1025Z" fill="#029b21"></path><path d="M0 906L297 882L594 831L891 770L1189 852L1486 863L1783 854L2080 842L2080 1025L1783 1025L1486 1025L1189 1025L891 1025L594 1025L297 1025L0 1025Z" fill="#00871b"></path></svg>