<svg id="visual" viewBox="0 0 675 900" width="675" height="900" xmlns="http://www.w3.org/2000/svg" xmlns:xlink="http://www.w3.org/1999/xlink" version="1.1"><g><g transform="translate(538 822)"><path d="M0 -78.8L61.6 -49.2L76.9 17.5L34.2 71L-34.2 71L-76.9 17.5L-61.6 -49.2Z" fill="none" stroke="#073a78" stroke-width="2"></path></g><g transform="translate(40 55)"><path d="M0 -60L46.9 -37.4L58.5 13.4L26 54.1L-26 54.1L-58.5 13.4L-46.9 -37.4Z" fill="none" stroke="#073a78" stroke-width="2"></path></g><g transform="translate(289 629)"><path d="M0 -34L26.6 -21.2L33.1 7.6L14.8 30.6L-14.8 30.6L-33.1 7.6L-26.6 -21.2Z" fill="none" stroke="#073a78" stroke-width="2"></path></g><g transform="translate(278 15)"><path d="M0 -37L28.9 -23.1L36.1 8.2L16.1 33.3L-16.1 33.3L-36.1 8.2L-28.9 -23.1Z" stroke="#073a78" fill="none" stroke-width="2"></path></g><g transform="translate(512 80)"><path d="M0 -20L15.6 -12.5L19.5 4.5L8.7 18L-8.7 18L-19.5 4.5L-15.6 -12.5Z" stroke="#073a78" fill="none" stroke-width="2"></path></g><g transform="translate(665 519)"><path d="M0 -77L60.2 -48L75.1 17.1L33.4 69.4L-33.4 69.4L-75.1 17.1L-60.2 -48Z" stroke="#073a78" fill="none" stroke-width="2"></path></g><g transform="translate(313 267)"><path d="M0 -64L50 -39.9L62.4 14.2L27.8 57.7L-27.8 57.7L-62.4 14.2L-50 -39.9Z" stroke="#073a78" fill="none" stroke-width="2"></path></g><g transform="translate(664 350)"><path d="M0 -30L23.5 -18.7L29.2 6.7L13 27L-13 27L-29.2 6.7L-23.5 -18.7Z" stroke="#073a78" fill="none" stroke-width="2"></path></g><g transform="translate(106 631)"><path d="M0 -56L43.8 -34.9L54.6 12.5L24.3 50.5L-24.3 50.5L-54.6 12.5L-43.8 -34.9Z" stroke="#073a78" fill="none" stroke-width="2"></path></g><g transform="translate(417 398)"><path d="M0 -38L29.7 -23.7L37 8.5L16.5 34.2L-16.5 34.2L-37 8.5L-29.7 -23.7Z" stroke="#073a78" fill="none" stroke-width="2"></path></g><g transform="translate(122 340)"><path d="M0 -40L31.3 -24.9L39 8.9L17.4 36L-17.4 36L-39 8.9L-31.3 -24.9Z" stroke="#073a78" fill="none" stroke-width="2"></path></g><g transform="translate(525 635)"><path d="M0 -60L46.9 -37.4L58.5 13.4L26 54.1L-26 54.1L-58.5 13.4L-46.9 -37.4Z" stroke="#073a78" fill="none" stroke-width="2"></path></g><g transform="translate(202 821)"><path d="M0 -19L14.9 -11.8L18.5 4.2L8.2 17.1L-8.2 17.1L-18.5 4.2L-14.9 -11.8Z" stroke="#073a78" fill="none" stroke-width="2"></path></g><g transform="translate(252 438)"><path d="M0 -63L49.3 -39.3L61.4 14L27.3 56.8L-27.3 56.8L-61.4 14L-49.3 -39.3Z" stroke="#073a78" fill="none" stroke-width="2"></path></g><g transform="translate(198 156)"><path d="M0 -39L30.5 -24.3L38 8.7L16.9 35.1L-16.9 35.1L-38 8.7L-30.5 -24.3Z" stroke="#073a78" fill="none" stroke-width="2"></path></g><g transform="translate(366 893)"><path d="M0 -48L37.5 -29.9L46.8 10.7L20.8 43.2L-20.8 43.2L-46.8 10.7L-37.5 -29.9Z" stroke="#073a78" fill="none" stroke-width="2"></path></g><g transform="translate(519 274)"><path d="M0 -76L59.4 -47.4L74.1 16.9L33 68.5L-33 68.5L-74.1 16.9L-59.4 -47.4Z" stroke="#073a78" fill="none" stroke-width="2"></path></g><g transform="translate(15 801)"><path d="M0 -36L28.1 -22.4L35.1 8L15.6 32.4L-15.6 32.4L-35.1 8L-28.1 -22.4Z" stroke="#073a78" fill="none" stroke-width="2"></path></g><g transform="translate(671 164)"><path d="M0 -24L18.8 -15L23.4 5.3L10.4 21.6L-10.4 21.6L-23.4 5.3L-18.8 -15Z" stroke="#073a78" fill="none" stroke-width="2"></path></g><g transform="translate(5 448)"><path d="M0 -21L16.4 -13.1L20.5 4.7L9.1 18.9L-9.1 18.9L-20.5 4.7L-16.4 -13.1Z" stroke="#073a78" fill="none" stroke-width="2"></path></g><g transform="translate(9 214)"><path d="M0 -9L7 -5.6L8.8 2L3.9 8.1L-3.9 8.1L-8.8 2L-7 -5.6Z" stroke="#073a78" fill="none" stroke-width="2"></path></g></g></svg>