<svg id="visual" viewBox="0 0 1024 500" width="1024" height="500" xmlns="http://www.w3.org/2000/svg" xmlns:xlink="http://www.w3.org/1999/xlink" version="1.1"><g><g transform="translate(270 147)"><path d="M0 -52.8L37.3 -37.3L52.8 0L37.3 37.3L0 52.8L-37.3 37.3L-52.8 0L-37.3 -37.3Z" fill="none" stroke="#6829a6" stroke-width="2"></path></g><g transform="translate(252 419)"><path d="M0 -14L9.9 -9.9L14 0L9.9 9.9L0 14L-9.9 9.9L-14 0L-9.9 -9.9Z" stroke="#6829a6" fill="none" stroke-width="2"></path></g><g transform="translate(585 487)"><path d="M0 -18L12.7 -12.7L18 0L12.7 12.7L0 18L-12.7 12.7L-18 0L-12.7 -12.7Z" stroke="#6829a6" fill="none" stroke-width="2"></path></g><g transform="translate(912 64)"><path d="M0 -41L29 -29L41 0L29 29L0 41L-29 29L-41 0L-29 -29Z" stroke="#6829a6" fill="none" stroke-width="2"></path></g><g transform="translate(64 342)"><path d="M0 -17L12 -12L17 0L12 12L0 17L-12 12L-17 0L-12 -12Z" stroke="#6829a6" fill="none" stroke-width="2"></path></g><g transform="translate(829 298)"><path d="M0 -23L16.3 -16.3L23 0L16.3 16.3L0 23L-16.3 16.3L-23 0L-16.3 -16.3Z" stroke="#6829a6" fill="none" stroke-width="2"></path></g><g transform="translate(521 231)"><path d="M0 -10L7.1 -7.1L10 0L7.1 7.1L0 10L-7.1 7.1L-10 0L-7.1 -7.1Z" stroke="#6829a6" fill="none" stroke-width="2"></path></g><g transform="translate(447 94)"><path d="M0 -36L25.5 -25.5L36 0L25.5 25.5L0 36L-25.5 25.5L-36 0L-25.5 -25.5Z" stroke="#6829a6" fill="none" stroke-width="2"></path></g><g transform="translate(69 198)"><path d="M0 -31L21.9 -21.9L31 0L21.9 21.9L0 31L-21.9 21.9L-31 0L-21.9 -21.9Z" stroke="#6829a6" fill="none" stroke-width="2"></path></g><g transform="translate(684 220)"><path d="M0 -25L17.7 -17.7L25 0L17.7 17.7L0 25L-17.7 17.7L-25 0L-17.7 -17.7Z" stroke="#6829a6" fill="none" stroke-width="2"></path></g><g transform="translate(702 426)"><path d="M0 -31L21.9 -21.9L31 0L21.9 21.9L0 31L-21.9 21.9L-31 0L-21.9 -21.9Z" stroke="#6829a6" fill="none" stroke-width="2"></path></g><g transform="translate(436 474)"><path d="M0 -43L30.4 -30.4L43 0L30.4 30.4L0 43L-30.4 30.4L-43 0L-30.4 -30.4Z" stroke="#6829a6" fill="none" stroke-width="2"></path></g><g transform="translate(544 352)"><path d="M0 -45L31.8 -31.8L45 0L31.8 31.8L0 45L-31.8 31.8L-45 0L-31.8 -31.8Z" stroke="#6829a6" fill="none" stroke-width="2"></path></g><g transform="translate(433 355)"><path d="M0 -25L17.7 -17.7L25 0L17.7 17.7L0 25L-17.7 17.7L-25 0L-17.7 -17.7Z" stroke="#6829a6" fill="none" stroke-width="2"></path></g><g transform="translate(627 54)"><path d="M0 -29L20.5 -20.5L29 0L20.5 20.5L0 29L-20.5 20.5L-29 0L-20.5 -20.5Z" stroke="#6829a6" fill="none" stroke-width="2"></path></g><g transform="translate(1002 219)"><path d="M0 -45L31.8 -31.8L45 0L31.8 31.8L0 45L-31.8 31.8L-45 0L-31.8 -31.8Z" stroke="#6829a6" fill="none" stroke-width="2"></path></g><g transform="translate(810 175)"><path d="M0 -32L22.6 -22.6L32 0L22.6 22.6L0 32L-22.6 22.6L-32 0L-22.6 -22.6Z" stroke="#6829a6" fill="none" stroke-width="2"></path></g><g transform="translate(346 33)"><path d="M0 -13L9.2 -9.2L13 0L9.2 9.2L0 13L-9.2 9.2L-13 0L-9.2 -9.2Z" stroke="#6829a6" fill="none" stroke-width="2"></path></g><g transform="translate(987 394)"><path d="M0 -43L30.4 -30.4L43 0L30.4 30.4L0 43L-30.4 30.4L-43 0L-30.4 -30.4Z" stroke="#6829a6" fill="none" stroke-width="2"></path></g><g transform="translate(808 436)"><path d="M0 -39L27.6 -27.6L39 0L27.6 27.6L0 39L-27.6 27.6L-39 0L-27.6 -27.6Z" stroke="#6829a6" fill="none" stroke-width="2"></path></g><g transform="translate(235 272)"><path d="M0 -49L34.6 -34.6L49 0L34.6 34.6L0 49L-34.6 34.6L-49 0L-34.6 -34.6Z" stroke="#6829a6" fill="none" stroke-width="2"></path></g><g transform="translate(151 68)"><path d="M0 -32L22.6 -22.6L32 0L22.6 22.6L0 32L-22.6 22.6L-32 0L-22.6 -22.6Z" stroke="#6829a6" fill="none" stroke-width="2"></path></g><g transform="translate(104 484)"><path d="M0 -14L9.9 -9.9L14 0L9.9 9.9L0 14L-9.9 9.9L-14 0L-9.9 -9.9Z" stroke="#6829a6" fill="none" stroke-width="2"></path></g><g transform="translate(21 17)"><path d="M0 -43L30.4 -30.4L43 0L30.4 30.4L0 43L-30.4 30.4L-43 0L-30.4 -30.4Z" stroke="#6829a6" fill="none" stroke-width="2"></path></g><g transform="translate(722 319)"><path d="M0 -49L34.6 -34.6L49 0L34.6 34.6L0 49L-34.6 34.6L-49 0L-34.6 -34.6Z" stroke="#6829a6" fill="none" stroke-width="2"></path></g><g transform="translate(758 30)"><path d="M0 -28L19.8 -19.8L28 0L19.8 19.8L0 28L-19.8 19.8L-28 0L-19.8 -19.8Z" stroke="#6829a6" fill="none" stroke-width="2"></path></g><g transform="translate(938 495)"><path d="M0 -34L24 -24L34 0L24 24L0 34L-24 24L-34 0L-24 -24Z" stroke="#6829a6" fill="none" stroke-width="2"></path></g><g transform="translate(381 251)"><path d="M0 -20L14.1 -14.1L20 0L14.1 14.1L0 20L-14.1 14.1L-20 0L-14.1 -14.1Z" stroke="#6829a6" fill="none" stroke-width="2"></path></g><g transform="translate(242 4)"><path d="M0 -10L7.1 -7.1L10 0L7.1 7.1L0 10L-7.1 7.1L-10 0L-7.1 -7.1Z" stroke="#6829a6" fill="none" stroke-width="2"></path></g><g transform="translate(2 441)"><path d="M0 -36L25.5 -25.5L36 0L25.5 25.5L0 36L-25.5 25.5L-36 0L-25.5 -25.5Z" stroke="#6829a6" fill="none" stroke-width="2"></path></g><g transform="translate(330 493)"><path d="M0 -38L26.9 -26.9L38 0L26.9 26.9L0 38L-26.9 26.9L-38 0L-26.9 -26.9Z" stroke="#6829a6" fill="none" stroke-width="2"></path></g><g transform="translate(1022 86)"><path d="M0 -38L26.9 -26.9L38 0L26.9 26.9L0 38L-26.9 26.9L-38 0L-26.9 -26.9Z" stroke="#6829a6" fill="none" stroke-width="2"></path></g><g transform="translate(522 19)"><path d="M0 -18L12.7 -12.7L18 0L12.7 12.7L0 18L-12.7 12.7L-18 0L-12.7 -12.7Z" stroke="#6829a6" fill="none" stroke-width="2"></path></g></g></svg>