<svg id="visual" viewBox="0 0 3600 1800" width="3600" height="1800" xmlns="http://www.w3.org/2000/svg" xmlns:xlink="http://www.w3.org/1999/xlink" version="1.1"><g><g transform="translate(213 1772)"><path d="M0 -257.5L201.3 -160.5L251 57.3L111.7 232L-111.7 232L-251 57.3L-201.3 -160.5Z" fill="none" stroke="#073a78" stroke-width="2"></path></g><g transform="translate(397 1093)"><path d="M0 -250L195.5 -155.9L243.7 55.6L108.5 225.2L-108.5 225.2L-243.7 55.6L-195.5 -155.9Z" fill="none" stroke="#073a78" stroke-width="2"></path></g><g transform="translate(1870 443)"><path d="M0 -185L144.6 -115.3L180.4 41.2L80.3 166.7L-80.3 166.7L-180.4 41.2L-144.6 -115.3Z" fill="none" stroke="#073a78" stroke-width="2"></path></g><g transform="translate(3549 1006)"><path d="M0 -150L117.3 -93.5L146.2 33.4L65.1 135.1L-65.1 135.1L-146.2 33.4L-117.3 -93.5Z" stroke="#073a78" fill="none" stroke-width="2"></path></g><g transform="translate(1000 100)"><path d="M0 -124L96.9 -77.3L120.9 27.6L53.8 111.7L-53.8 111.7L-120.9 27.6L-96.9 -77.3Z" stroke="#073a78" fill="none" stroke-width="2"></path></g><g transform="translate(687 1562)"><path d="M0 -39L30.5 -24.3L38 8.7L16.9 35.1L-16.9 35.1L-38 8.7L-30.5 -24.3Z" stroke="#073a78" fill="none" stroke-width="2"></path></g><g transform="translate(3111 175)"><path d="M0 -174L136 -108.5L169.6 38.7L75.5 156.8L-75.5 156.8L-169.6 38.7L-136 -108.5Z" stroke="#073a78" fill="none" stroke-width="2"></path></g><g transform="translate(2832 1065)"><path d="M0 -178L139.2 -111L173.5 39.6L77.2 160.4L-77.2 160.4L-173.5 39.6L-139.2 -111Z" stroke="#073a78" fill="none" stroke-width="2"></path></g><g transform="translate(1762 1433)"><path d="M0 -145L113.4 -90.4L141.4 32.3L62.9 130.6L-62.9 130.6L-141.4 32.3L-113.4 -90.4Z" stroke="#073a78" fill="none" stroke-width="2"></path></g><g transform="translate(368 553)"><path d="M0 -90L70.4 -56.1L87.7 20L39 81.1L-39 81.1L-87.7 20L-70.4 -56.1Z" stroke="#073a78" fill="none" stroke-width="2"></path></g><g transform="translate(2544 322)"><path d="M0 -235L183.7 -146.5L229.1 52.3L102 211.7L-102 211.7L-229.1 52.3L-183.7 -146.5Z" stroke="#073a78" fill="none" stroke-width="2"></path></g><g transform="translate(224 15)"><path d="M0 -115L89.9 -71.7L112.1 25.6L49.9 103.6L-49.9 103.6L-112.1 25.6L-89.9 -71.7Z" stroke="#073a78" fill="none" stroke-width="2"></path></g><g transform="translate(3287 1677)"><path d="M0 -161L125.9 -100.4L157 35.8L69.9 145.1L-69.9 145.1L-157 35.8L-125.9 -100.4Z" stroke="#073a78" fill="none" stroke-width="2"></path></g><g transform="translate(1052 939)"><path d="M0 -185L144.6 -115.3L180.4 41.2L80.3 166.7L-80.3 166.7L-180.4 41.2L-144.6 -115.3Z" stroke="#073a78" fill="none" stroke-width="2"></path></g><g transform="translate(1321 1744)"><path d="M0 -254L198.6 -158.4L247.6 56.5L110.2 228.8L-110.2 228.8L-247.6 56.5L-198.6 -158.4Z" stroke="#073a78" fill="none" stroke-width="2"></path></g><g transform="translate(2316 1071)"><path d="M0 -101L79 -63L98.5 22.5L43.8 91L-43.8 91L-98.5 22.5L-79 -63Z" stroke="#073a78" fill="none" stroke-width="2"></path></g><g transform="translate(2225 1764)"><path d="M0 -95L74.3 -59.2L92.6 21.1L41.2 85.6L-41.2 85.6L-92.6 21.1L-74.3 -59.2Z" stroke="#073a78" fill="none" stroke-width="2"></path></g><g transform="translate(1537 11)"><path d="M0 -77L60.2 -48L75.1 17.1L33.4 69.4L-33.4 69.4L-75.1 17.1L-60.2 -48Z" stroke="#073a78" fill="none" stroke-width="2"></path></g><g transform="translate(2724 1619)"><path d="M0 -255L199.4 -159L248.6 56.7L110.6 229.7L-110.6 229.7L-248.6 56.7L-199.4 -159Z" stroke="#073a78" fill="none" stroke-width="2"></path></g><g transform="translate(1651 930)"><path d="M0 -147L114.9 -91.7L143.3 32.7L63.8 132.4L-63.8 132.4L-143.3 32.7L-114.9 -91.7Z" stroke="#073a78" fill="none" stroke-width="2"></path></g></g></svg>