<svg id="visual" viewBox="0 0 1024 720" width="1024" height="720" xmlns="http://www.w3.org/2000/svg" xmlns:xlink="http://www.w3.org/1999/xlink" version="1.1"><path d="M0 87L24.3 88.3C48.7 89.7 97.3 92.3 146.2 99.7C195 107 244 119 292.8 125C341.7 131 390.3 131 439 125C487.7 119 536.3 107 585 108.2C633.7 109.3 682.3 123.7 731.2 127.2C780 130.7 829 123.3 877.8 124.5C926.7 125.7 975.3 135.3 999.7 140.2L1024 145L1024 0L999.7 0C975.3 0 926.7 0 877.8 0C829 0 780 0 731.2 0C682.3 0 633.7 0 585 0C536.3 0 487.7 0 439 0C390.3 0 341.7 0 292.8 0C244 0 195 0 146.2 0C97.3 0 48.7 0 24.3 0L0 0Z" fill="#78aeff"></path><path d="M0 217L24.3 215.8C48.7 214.7 97.3 212.3 146.2 219.5C195 226.7 244 243.3 292.8 246.8C341.7 250.3 390.3 240.7 439 234.7C487.7 228.7 536.3 226.3 585 227.7C633.7 229 682.3 234 731.2 241.2C780 248.3 829 257.7 877.8 263.7C926.7 269.7 975.3 272.3 999.7 273.7L1024 275L1024 143L999.7 138.2C975.3 133.3 926.7 123.7 877.8 122.5C829 121.3 780 128.7 731.2 125.2C682.3 121.7 633.7 107.3 585 106.2C536.3 105 487.7 117 439 123C390.3 129 341.7 129 292.8 123C244 117 195 105 146.2 97.7C97.3 90.3 48.7 87.7 24.3 86.3L0 85Z" fill="#5783f0"></path><path d="M0 534L24.3 516C48.7 498 97.3 462 146.2 464.3C195 466.7 244 507.3 292.8 512.2C341.7 517 390.3 486 439 478.8C487.7 471.7 536.3 488.3 585 494.3C633.7 500.3 682.3 495.7 731.2 490.8C780 486 829 481 877.8 475C926.7 469 975.3 462 999.7 458.5L1024 455L1024 273L999.7 271.7C975.3 270.3 926.7 267.7 877.8 261.7C829 255.7 780 246.3 731.2 239.2C682.3 232 633.7 227 585 225.7C536.3 224.3 487.7 226.7 439 232.7C390.3 238.7 341.7 248.3 292.8 244.8C244 241.3 195 224.7 146.2 217.5C97.3 210.3 48.7 212.7 24.3 213.8L0 215Z" fill="#4f54da"></path><path d="M0 721L24.3 721C48.7 721 97.3 721 146.2 721C195 721 244 721 292.8 721C341.7 721 390.3 721 439 721C487.7 721 536.3 721 585 721C633.7 721 682.3 721 731.2 721C780 721 829 721 877.8 721C926.7 721 975.3 721 999.7 721L1024 721L1024 453L999.7 456.5C975.3 460 926.7 467 877.8 473C829 479 780 484 731.2 488.8C682.3 493.7 633.7 498.3 585 492.3C536.3 486.3 487.7 469.7 439 476.8C390.3 484 341.7 515 292.8 510.2C244 505.3 195 464.7 146.2 462.3C97.3 460 48.7 496 24.3 514L0 532Z" fill="#580db9"></path></svg>